<mxfile host="app.diagrams.net" modified="2024-01-15T01:30:56.080Z" agent="Mozilla/5.0 (Windows NT 10.0; Win64; x64) AppleWebKit/537.36 (KHTML, like Gecko) Chrome/120.0.0.0 Safari/537.36" etag="I1BzGoAcejoj4L69FW-v" version="22.1.18" type="device" pages="2">
  <diagram name="Page-1" id="lOH93rd3EuAow3-czdrt">
    <mxGraphModel dx="1615" dy="815" grid="1" gridSize="10" guides="1" tooltips="1" connect="1" arrows="1" fold="1" page="1" pageScale="1" pageWidth="850" pageHeight="1100" math="0" shadow="0">
      <root>
        <mxCell id="0" />
        <mxCell id="1" parent="0" />
        <mxCell id="3SqrBNF6nBqNY-ok41ja-12" style="edgeStyle=orthogonalEdgeStyle;rounded=0;orthogonalLoop=1;jettySize=auto;html=1;entryX=0;entryY=0.5;entryDx=0;entryDy=0;endArrow=none;endFill=0;" edge="1" parent="1" source="3SqrBNF6nBqNY-ok41ja-1" target="3SqrBNF6nBqNY-ok41ja-11">
          <mxGeometry relative="1" as="geometry" />
        </mxCell>
        <mxCell id="3SqrBNF6nBqNY-ok41ja-1" value="user" style="shape=umlActor;html=1;verticalLabelPosition=bottom;verticalAlign=top;align=center;" vertex="1" parent="1">
          <mxGeometry x="110" y="360" width="80" height="90" as="geometry" />
        </mxCell>
        <mxCell id="3SqrBNF6nBqNY-ok41ja-3" value="" style="whiteSpace=wrap;html=1;aspect=fixed;fillColor=none;" vertex="1" parent="1">
          <mxGeometry x="270" y="70" width="720" height="720" as="geometry" />
        </mxCell>
        <mxCell id="3SqrBNF6nBqNY-ok41ja-4" value="system" style="text;strokeColor=none;fillColor=none;html=1;fontSize=24;fontStyle=1;verticalAlign=middle;align=center;" vertex="1" parent="1">
          <mxGeometry x="590" y="80" width="100" height="40" as="geometry" />
        </mxCell>
        <mxCell id="3SqrBNF6nBqNY-ok41ja-9" value="consultaion" style="ellipse;whiteSpace=wrap;html=1;" vertex="1" parent="1">
          <mxGeometry x="290" y="260" width="80" height="40" as="geometry" />
        </mxCell>
        <mxCell id="3SqrBNF6nBqNY-ok41ja-13" style="edgeStyle=orthogonalEdgeStyle;rounded=0;orthogonalLoop=1;jettySize=auto;html=1;endArrow=none;endFill=0;" edge="1" parent="1" source="3SqrBNF6nBqNY-ok41ja-10" target="3SqrBNF6nBqNY-ok41ja-1">
          <mxGeometry relative="1" as="geometry" />
        </mxCell>
        <mxCell id="3SqrBNF6nBqNY-ok41ja-10" value="rechercher" style="ellipse;whiteSpace=wrap;html=1;" vertex="1" parent="1">
          <mxGeometry x="290" y="315" width="80" height="40" as="geometry" />
        </mxCell>
        <mxCell id="3SqrBNF6nBqNY-ok41ja-11" value="register" style="ellipse;whiteSpace=wrap;html=1;" vertex="1" parent="1">
          <mxGeometry x="290" y="370" width="80" height="40" as="geometry" />
        </mxCell>
        <mxCell id="3SqrBNF6nBqNY-ok41ja-14" style="edgeStyle=orthogonalEdgeStyle;rounded=0;orthogonalLoop=1;jettySize=auto;html=1;entryX=0.5;entryY=0;entryDx=0;entryDy=0;entryPerimeter=0;endArrow=none;endFill=0;" edge="1" parent="1" source="3SqrBNF6nBqNY-ok41ja-9" target="3SqrBNF6nBqNY-ok41ja-1">
          <mxGeometry relative="1" as="geometry" />
        </mxCell>
        <mxCell id="3SqrBNF6nBqNY-ok41ja-15" value="création&lt;br&gt;de wiki" style="ellipse;whiteSpace=wrap;html=1;" vertex="1" parent="1">
          <mxGeometry x="290" y="100" width="80" height="40" as="geometry" />
        </mxCell>
        <mxCell id="3SqrBNF6nBqNY-ok41ja-16" value="modification&lt;br&gt;de wiki" style="ellipse;whiteSpace=wrap;html=1;" vertex="1" parent="1">
          <mxGeometry x="290" y="150" width="80" height="40" as="geometry" />
        </mxCell>
        <mxCell id="3SqrBNF6nBqNY-ok41ja-17" value="suppression&lt;br&gt;de wiki" style="ellipse;whiteSpace=wrap;html=1;" vertex="1" parent="1">
          <mxGeometry x="290" y="200" width="80" height="40" as="geometry" />
        </mxCell>
        <mxCell id="3SqrBNF6nBqNY-ok41ja-18" style="edgeStyle=orthogonalEdgeStyle;rounded=0;orthogonalLoop=1;jettySize=auto;html=1;entryX=0.5;entryY=0;entryDx=0;entryDy=0;entryPerimeter=0;endArrow=none;endFill=0;" edge="1" parent="1" source="3SqrBNF6nBqNY-ok41ja-15" target="3SqrBNF6nBqNY-ok41ja-1">
          <mxGeometry relative="1" as="geometry" />
        </mxCell>
        <mxCell id="3SqrBNF6nBqNY-ok41ja-19" style="edgeStyle=orthogonalEdgeStyle;rounded=0;orthogonalLoop=1;jettySize=auto;html=1;entryX=0.5;entryY=0;entryDx=0;entryDy=0;entryPerimeter=0;endArrow=none;endFill=0;" edge="1" parent="1" source="3SqrBNF6nBqNY-ok41ja-16" target="3SqrBNF6nBqNY-ok41ja-1">
          <mxGeometry relative="1" as="geometry" />
        </mxCell>
        <mxCell id="3SqrBNF6nBqNY-ok41ja-20" style="edgeStyle=orthogonalEdgeStyle;rounded=0;orthogonalLoop=1;jettySize=auto;html=1;entryX=0.5;entryY=0;entryDx=0;entryDy=0;entryPerimeter=0;endArrow=none;endFill=0;" edge="1" parent="1" source="3SqrBNF6nBqNY-ok41ja-17" target="3SqrBNF6nBqNY-ok41ja-1">
          <mxGeometry relative="1" as="geometry" />
        </mxCell>
        <mxCell id="3SqrBNF6nBqNY-ok41ja-21" value="création&lt;br&gt;de category" style="ellipse;whiteSpace=wrap;html=1;" vertex="1" parent="1">
          <mxGeometry x="290" y="420" width="80" height="40" as="geometry" />
        </mxCell>
        <mxCell id="3SqrBNF6nBqNY-ok41ja-22" value="modification&lt;br&gt;de category" style="ellipse;whiteSpace=wrap;html=1;" vertex="1" parent="1">
          <mxGeometry x="290" y="470" width="80" height="40" as="geometry" />
        </mxCell>
        <mxCell id="3SqrBNF6nBqNY-ok41ja-23" value="suppression&lt;br&gt;de category" style="ellipse;whiteSpace=wrap;html=1;" vertex="1" parent="1">
          <mxGeometry x="290" y="520" width="80" height="40" as="geometry" />
        </mxCell>
        <mxCell id="3SqrBNF6nBqNY-ok41ja-24" style="edgeStyle=orthogonalEdgeStyle;rounded=0;orthogonalLoop=1;jettySize=auto;html=1;entryX=0.514;entryY=0.678;entryDx=0;entryDy=0;entryPerimeter=0;endArrow=none;endFill=0;" edge="1" parent="1" source="3SqrBNF6nBqNY-ok41ja-21" target="3SqrBNF6nBqNY-ok41ja-1">
          <mxGeometry relative="1" as="geometry" />
        </mxCell>
        <mxCell id="3SqrBNF6nBqNY-ok41ja-25" style="edgeStyle=orthogonalEdgeStyle;rounded=0;orthogonalLoop=1;jettySize=auto;html=1;entryX=0.5;entryY=0.5;entryDx=0;entryDy=0;entryPerimeter=0;endArrow=none;endFill=0;" edge="1" parent="1" source="3SqrBNF6nBqNY-ok41ja-22" target="3SqrBNF6nBqNY-ok41ja-1">
          <mxGeometry relative="1" as="geometry" />
        </mxCell>
        <mxCell id="3SqrBNF6nBqNY-ok41ja-26" style="edgeStyle=orthogonalEdgeStyle;rounded=0;orthogonalLoop=1;jettySize=auto;html=1;entryX=0.5;entryY=0.5;entryDx=0;entryDy=0;entryPerimeter=0;endArrow=none;endFill=0;" edge="1" parent="1" source="3SqrBNF6nBqNY-ok41ja-23" target="3SqrBNF6nBqNY-ok41ja-1">
          <mxGeometry relative="1" as="geometry" />
        </mxCell>
        <mxCell id="3SqrBNF6nBqNY-ok41ja-28" value="ajouter&lt;br&gt;des tags" style="ellipse;whiteSpace=wrap;html=1;" vertex="1" parent="1">
          <mxGeometry x="290" y="570" width="80" height="40" as="geometry" />
        </mxCell>
        <mxCell id="3SqrBNF6nBqNY-ok41ja-32" style="edgeStyle=orthogonalEdgeStyle;rounded=0;orthogonalLoop=1;jettySize=auto;html=1;endArrow=none;endFill=0;" edge="1" parent="1" source="3SqrBNF6nBqNY-ok41ja-29">
          <mxGeometry relative="1" as="geometry">
            <mxPoint x="150" y="450" as="targetPoint" />
          </mxGeometry>
        </mxCell>
        <mxCell id="3SqrBNF6nBqNY-ok41ja-29" value="modification&lt;br&gt;de tag" style="ellipse;whiteSpace=wrap;html=1;" vertex="1" parent="1">
          <mxGeometry x="290" y="620" width="80" height="40" as="geometry" />
        </mxCell>
        <mxCell id="3SqrBNF6nBqNY-ok41ja-30" value="suppression&lt;br&gt;de tag" style="ellipse;whiteSpace=wrap;html=1;" vertex="1" parent="1">
          <mxGeometry x="290" y="670" width="80" height="40" as="geometry" />
        </mxCell>
        <mxCell id="3SqrBNF6nBqNY-ok41ja-31" style="edgeStyle=orthogonalEdgeStyle;rounded=0;orthogonalLoop=1;jettySize=auto;html=1;entryX=0.499;entryY=0.269;entryDx=0;entryDy=0;entryPerimeter=0;endArrow=none;endFill=0;" edge="1" parent="1" source="3SqrBNF6nBqNY-ok41ja-28" target="3SqrBNF6nBqNY-ok41ja-1">
          <mxGeometry relative="1" as="geometry" />
        </mxCell>
        <mxCell id="3SqrBNF6nBqNY-ok41ja-33" style="edgeStyle=orthogonalEdgeStyle;rounded=0;orthogonalLoop=1;jettySize=auto;html=1;entryX=0.508;entryY=0.671;entryDx=0;entryDy=0;entryPerimeter=0;endArrow=none;endFill=0;" edge="1" parent="1" source="3SqrBNF6nBqNY-ok41ja-30" target="3SqrBNF6nBqNY-ok41ja-1">
          <mxGeometry relative="1" as="geometry" />
        </mxCell>
        <mxCell id="3SqrBNF6nBqNY-ok41ja-34" value="authentification" style="ellipse;whiteSpace=wrap;html=1;" vertex="1" parent="1">
          <mxGeometry x="590" y="330" width="230" height="110" as="geometry" />
        </mxCell>
        <mxCell id="3SqrBNF6nBqNY-ok41ja-35" value="&amp;lt;&amp;lt;include&amp;gt;&amp;gt;" style="edgeStyle=none;html=1;endArrow=open;verticalAlign=bottom;dashed=1;labelBackgroundColor=none;rounded=0;entryX=0.5;entryY=0;entryDx=0;entryDy=0;exitX=1;exitY=1;exitDx=0;exitDy=0;" edge="1" parent="1" source="3SqrBNF6nBqNY-ok41ja-15" target="3SqrBNF6nBqNY-ok41ja-34">
          <mxGeometry width="160" relative="1" as="geometry">
            <mxPoint x="460" y="160" as="sourcePoint" />
            <mxPoint x="620" y="160" as="targetPoint" />
          </mxGeometry>
        </mxCell>
        <mxCell id="3SqrBNF6nBqNY-ok41ja-36" value="&amp;lt;&amp;lt;include&amp;gt;&amp;gt;" style="edgeStyle=none;html=1;endArrow=open;verticalAlign=bottom;dashed=1;labelBackgroundColor=none;rounded=0;exitX=0.972;exitY=0.599;exitDx=0;exitDy=0;exitPerimeter=0;" edge="1" parent="1" source="3SqrBNF6nBqNY-ok41ja-21" target="3SqrBNF6nBqNY-ok41ja-34">
          <mxGeometry width="160" relative="1" as="geometry">
            <mxPoint x="400" y="474" as="sourcePoint" />
            <mxPoint x="747" y="670" as="targetPoint" />
          </mxGeometry>
        </mxCell>
        <mxCell id="3SqrBNF6nBqNY-ok41ja-37" value="&amp;lt;&amp;lt;include&amp;gt;&amp;gt;" style="edgeStyle=none;html=1;endArrow=open;verticalAlign=bottom;dashed=1;labelBackgroundColor=none;rounded=0;entryX=0.181;entryY=0.14;entryDx=0;entryDy=0;exitX=0.967;exitY=0.646;exitDx=0;exitDy=0;exitPerimeter=0;entryPerimeter=0;" edge="1" parent="1" source="3SqrBNF6nBqNY-ok41ja-16" target="3SqrBNF6nBqNY-ok41ja-34">
          <mxGeometry width="160" relative="1" as="geometry">
            <mxPoint x="370" y="164" as="sourcePoint" />
            <mxPoint x="717" y="360" as="targetPoint" />
          </mxGeometry>
        </mxCell>
        <mxCell id="3SqrBNF6nBqNY-ok41ja-38" value="&amp;lt;&amp;lt;include&amp;gt;&amp;gt;" style="edgeStyle=none;html=1;endArrow=open;verticalAlign=bottom;dashed=1;labelBackgroundColor=none;rounded=0;entryX=0.055;entryY=0.301;entryDx=0;entryDy=0;exitX=0.951;exitY=0.304;exitDx=0;exitDy=0;entryPerimeter=0;exitPerimeter=0;" edge="1" parent="1" source="3SqrBNF6nBqNY-ok41ja-17" target="3SqrBNF6nBqNY-ok41ja-34">
          <mxGeometry width="160" relative="1" as="geometry">
            <mxPoint x="360" y="200" as="sourcePoint" />
            <mxPoint x="707" y="396" as="targetPoint" />
          </mxGeometry>
        </mxCell>
        <mxCell id="3SqrBNF6nBqNY-ok41ja-40" value="&amp;lt;&amp;lt;include&amp;gt;&amp;gt;" style="edgeStyle=none;html=1;endArrow=open;verticalAlign=bottom;dashed=1;labelBackgroundColor=none;rounded=0;exitX=0.972;exitY=0.268;exitDx=0;exitDy=0;exitPerimeter=0;entryX=0.173;entryY=0.855;entryDx=0;entryDy=0;entryPerimeter=0;" edge="1" parent="1" source="3SqrBNF6nBqNY-ok41ja-22" target="3SqrBNF6nBqNY-ok41ja-34">
          <mxGeometry width="160" relative="1" as="geometry">
            <mxPoint x="370" y="480" as="sourcePoint" />
            <mxPoint x="599" y="440" as="targetPoint" />
          </mxGeometry>
        </mxCell>
        <mxCell id="3SqrBNF6nBqNY-ok41ja-41" value="&amp;lt;&amp;lt;include&amp;gt;&amp;gt;" style="edgeStyle=none;html=1;endArrow=open;verticalAlign=bottom;dashed=1;labelBackgroundColor=none;rounded=0;exitX=1;exitY=0.5;exitDx=0;exitDy=0;" edge="1" parent="1" source="3SqrBNF6nBqNY-ok41ja-23" target="3SqrBNF6nBqNY-ok41ja-34">
          <mxGeometry width="160" relative="1" as="geometry">
            <mxPoint x="425" y="510" as="sourcePoint" />
            <mxPoint x="654" y="470" as="targetPoint" />
          </mxGeometry>
        </mxCell>
        <mxCell id="3SqrBNF6nBqNY-ok41ja-42" value="&amp;lt;&amp;lt;include&amp;gt;&amp;gt;" style="edgeStyle=none;html=1;endArrow=open;verticalAlign=bottom;dashed=1;labelBackgroundColor=none;rounded=0;" edge="1" parent="1" source="3SqrBNF6nBqNY-ok41ja-28" target="3SqrBNF6nBqNY-ok41ja-34">
          <mxGeometry width="160" relative="1" as="geometry">
            <mxPoint x="490" y="520" as="sourcePoint" />
            <mxPoint x="719" y="480" as="targetPoint" />
          </mxGeometry>
        </mxCell>
        <mxCell id="3SqrBNF6nBqNY-ok41ja-43" value="&amp;lt;&amp;lt;include&amp;gt;&amp;gt;" style="edgeStyle=none;html=1;endArrow=open;verticalAlign=bottom;dashed=1;labelBackgroundColor=none;rounded=0;" edge="1" parent="1" source="3SqrBNF6nBqNY-ok41ja-30" target="3SqrBNF6nBqNY-ok41ja-34">
          <mxGeometry width="160" relative="1" as="geometry">
            <mxPoint x="470" y="610" as="sourcePoint" />
            <mxPoint x="699" y="570" as="targetPoint" />
          </mxGeometry>
        </mxCell>
        <mxCell id="3SqrBNF6nBqNY-ok41ja-44" value="&amp;lt;&amp;lt;include&amp;gt;&amp;gt;" style="edgeStyle=none;html=1;endArrow=open;verticalAlign=bottom;dashed=1;labelBackgroundColor=none;rounded=0;exitX=0.961;exitY=0.323;exitDx=0;exitDy=0;exitPerimeter=0;" edge="1" parent="1" source="3SqrBNF6nBqNY-ok41ja-29" target="3SqrBNF6nBqNY-ok41ja-34">
          <mxGeometry width="160" relative="1" as="geometry">
            <mxPoint x="445.5" y="610" as="sourcePoint" />
            <mxPoint x="674.5" y="570" as="targetPoint" />
          </mxGeometry>
        </mxCell>
      </root>
    </mxGraphModel>
  </diagram>
  <diagram id="T3liW0BiEfnCRWLAcHyf" name="Page-2">
    <mxGraphModel dx="955" dy="482" grid="1" gridSize="10" guides="1" tooltips="1" connect="1" arrows="1" fold="1" page="1" pageScale="1" pageWidth="850" pageHeight="1100" math="0" shadow="0">
      <root>
        <mxCell id="0" />
        <mxCell id="1" parent="0" />
        <mxCell id="Dh0-3TK1VAdziAkRTUVm-4" value="User" style="swimlane;fontStyle=1;align=center;verticalAlign=top;childLayout=stackLayout;horizontal=1;startSize=26;horizontalStack=0;resizeParent=1;resizeParentMax=0;resizeLast=0;collapsible=1;marginBottom=0;whiteSpace=wrap;html=1;" vertex="1" parent="1">
          <mxGeometry x="320" y="82" width="160" height="198" as="geometry" />
        </mxCell>
        <mxCell id="Dh0-3TK1VAdziAkRTUVm-5" value="- id: int&lt;br&gt;+ name : string&lt;br&gt;+ email : string&lt;br&gt;-password : string&lt;br&gt;+ Role&amp;nbsp; : string" style="text;strokeColor=none;fillColor=none;align=left;verticalAlign=top;spacingLeft=4;spacingRight=4;overflow=hidden;rotatable=0;points=[[0,0.5],[1,0.5]];portConstraint=eastwest;whiteSpace=wrap;html=1;" vertex="1" parent="Dh0-3TK1VAdziAkRTUVm-4">
          <mxGeometry y="26" width="160" height="74" as="geometry" />
        </mxCell>
        <mxCell id="Dh0-3TK1VAdziAkRTUVm-6" value="" style="line;strokeWidth=1;fillColor=none;align=left;verticalAlign=middle;spacingTop=-1;spacingLeft=3;spacingRight=3;rotatable=0;labelPosition=right;points=[];portConstraint=eastwest;strokeColor=inherit;" vertex="1" parent="Dh0-3TK1VAdziAkRTUVm-4">
          <mxGeometry y="100" width="160" height="8" as="geometry" />
        </mxCell>
        <mxCell id="Dh0-3TK1VAdziAkRTUVm-7" value="login() , register() ,logout (),&lt;br&gt;recherche() ." style="text;strokeColor=none;fillColor=none;align=left;verticalAlign=top;spacingLeft=4;spacingRight=4;overflow=hidden;rotatable=0;points=[[0,0.5],[1,0.5]];portConstraint=eastwest;whiteSpace=wrap;html=1;" vertex="1" parent="Dh0-3TK1VAdziAkRTUVm-4">
          <mxGeometry y="108" width="160" height="90" as="geometry" />
        </mxCell>
        <mxCell id="Dh0-3TK1VAdziAkRTUVm-12" value="category" style="swimlane;fontStyle=1;align=center;verticalAlign=top;childLayout=stackLayout;horizontal=1;startSize=26;horizontalStack=0;resizeParent=1;resizeParentMax=0;resizeLast=0;collapsible=1;marginBottom=0;whiteSpace=wrap;html=1;" vertex="1" parent="1">
          <mxGeometry x="610" y="316" width="160" height="200" as="geometry" />
        </mxCell>
        <mxCell id="Dh0-3TK1VAdziAkRTUVm-13" value="-id: int&lt;br&gt;+name : string&amp;nbsp;&lt;br&gt;+ date : date" style="text;strokeColor=none;fillColor=none;align=left;verticalAlign=top;spacingLeft=4;spacingRight=4;overflow=hidden;rotatable=0;points=[[0,0.5],[1,0.5]];portConstraint=eastwest;whiteSpace=wrap;html=1;" vertex="1" parent="Dh0-3TK1VAdziAkRTUVm-12">
          <mxGeometry y="26" width="160" height="64" as="geometry" />
        </mxCell>
        <mxCell id="Dh0-3TK1VAdziAkRTUVm-14" value="" style="line;strokeWidth=1;fillColor=none;align=left;verticalAlign=middle;spacingTop=-1;spacingLeft=3;spacingRight=3;rotatable=0;labelPosition=right;points=[];portConstraint=eastwest;strokeColor=inherit;" vertex="1" parent="Dh0-3TK1VAdziAkRTUVm-12">
          <mxGeometry y="90" width="160" height="8" as="geometry" />
        </mxCell>
        <mxCell id="Dh0-3TK1VAdziAkRTUVm-15" value="consultaition () , ajoute () , modifier() , suppression(),&lt;br&gt;statistics()" style="text;strokeColor=none;fillColor=none;align=left;verticalAlign=top;spacingLeft=4;spacingRight=4;overflow=hidden;rotatable=0;points=[[0,0.5],[1,0.5]];portConstraint=eastwest;whiteSpace=wrap;html=1;" vertex="1" parent="Dh0-3TK1VAdziAkRTUVm-12">
          <mxGeometry y="98" width="160" height="102" as="geometry" />
        </mxCell>
        <mxCell id="Dh0-3TK1VAdziAkRTUVm-16" value="Wiki" style="swimlane;fontStyle=1;align=center;verticalAlign=top;childLayout=stackLayout;horizontal=1;startSize=22;horizontalStack=0;resizeParent=1;resizeParentMax=0;resizeLast=0;collapsible=1;marginBottom=0;whiteSpace=wrap;html=1;" vertex="1" parent="1">
          <mxGeometry x="60" y="310" width="160" height="196" as="geometry" />
        </mxCell>
        <mxCell id="Dh0-3TK1VAdziAkRTUVm-17" value="-id : int&lt;br&gt;+ name : string&lt;br&gt;+ description : string&lt;br&gt;+ date : date&amp;nbsp;&lt;br&gt;+ img: string" style="text;strokeColor=none;fillColor=none;align=left;verticalAlign=top;spacingLeft=4;spacingRight=4;overflow=hidden;rotatable=0;points=[[0,0.5],[1,0.5]];portConstraint=eastwest;whiteSpace=wrap;html=1;" vertex="1" parent="Dh0-3TK1VAdziAkRTUVm-16">
          <mxGeometry y="22" width="160" height="94" as="geometry" />
        </mxCell>
        <mxCell id="Dh0-3TK1VAdziAkRTUVm-18" value="" style="line;strokeWidth=1;fillColor=none;align=left;verticalAlign=middle;spacingTop=-1;spacingLeft=3;spacingRight=3;rotatable=0;labelPosition=right;points=[];portConstraint=eastwest;strokeColor=inherit;" vertex="1" parent="Dh0-3TK1VAdziAkRTUVm-16">
          <mxGeometry y="116" width="160" height="8" as="geometry" />
        </mxCell>
        <mxCell id="Dh0-3TK1VAdziAkRTUVm-19" value="consultaition () , ajoute () , modifier() , suppression(),&lt;br style=&quot;border-color: var(--border-color);&quot;&gt;statistics()" style="text;strokeColor=none;fillColor=none;align=left;verticalAlign=top;spacingLeft=4;spacingRight=4;overflow=hidden;rotatable=0;points=[[0,0.5],[1,0.5]];portConstraint=eastwest;whiteSpace=wrap;html=1;" vertex="1" parent="Dh0-3TK1VAdziAkRTUVm-16">
          <mxGeometry y="124" width="160" height="72" as="geometry" />
        </mxCell>
        <mxCell id="Dh0-3TK1VAdziAkRTUVm-20" value="tags" style="swimlane;fontStyle=1;align=center;verticalAlign=top;childLayout=stackLayout;horizontal=1;startSize=26;horizontalStack=0;resizeParent=1;resizeParentMax=0;resizeLast=0;collapsible=1;marginBottom=0;whiteSpace=wrap;html=1;" vertex="1" parent="1">
          <mxGeometry x="340" y="380" width="160" height="190" as="geometry" />
        </mxCell>
        <mxCell id="Dh0-3TK1VAdziAkRTUVm-21" value="-id : int&lt;br&gt;+ name : string" style="text;strokeColor=none;fillColor=none;align=left;verticalAlign=top;spacingLeft=4;spacingRight=4;overflow=hidden;rotatable=0;points=[[0,0.5],[1,0.5]];portConstraint=eastwest;whiteSpace=wrap;html=1;" vertex="1" parent="Dh0-3TK1VAdziAkRTUVm-20">
          <mxGeometry y="26" width="160" height="84" as="geometry" />
        </mxCell>
        <mxCell id="Dh0-3TK1VAdziAkRTUVm-22" value="" style="line;strokeWidth=1;fillColor=none;align=left;verticalAlign=middle;spacingTop=-1;spacingLeft=3;spacingRight=3;rotatable=0;labelPosition=right;points=[];portConstraint=eastwest;strokeColor=inherit;" vertex="1" parent="Dh0-3TK1VAdziAkRTUVm-20">
          <mxGeometry y="110" width="160" height="8" as="geometry" />
        </mxCell>
        <mxCell id="Dh0-3TK1VAdziAkRTUVm-23" value="consultaition () , ajoute () , modifier() , suppression()" style="text;strokeColor=none;fillColor=none;align=left;verticalAlign=top;spacingLeft=4;spacingRight=4;overflow=hidden;rotatable=0;points=[[0,0.5],[1,0.5]];portConstraint=eastwest;whiteSpace=wrap;html=1;" vertex="1" parent="Dh0-3TK1VAdziAkRTUVm-20">
          <mxGeometry y="118" width="160" height="72" as="geometry" />
        </mxCell>
        <mxCell id="Dh0-3TK1VAdziAkRTUVm-26" style="edgeStyle=orthogonalEdgeStyle;rounded=0;orthogonalLoop=1;jettySize=auto;html=1;entryX=0.5;entryY=0;entryDx=0;entryDy=0;endArrow=none;endFill=0;" edge="1" parent="1" source="Dh0-3TK1VAdziAkRTUVm-5" target="Dh0-3TK1VAdziAkRTUVm-16">
          <mxGeometry relative="1" as="geometry" />
        </mxCell>
        <mxCell id="Dh0-3TK1VAdziAkRTUVm-29" value="1..1" style="edgeLabel;html=1;align=center;verticalAlign=middle;resizable=0;points=[];" vertex="1" connectable="0" parent="Dh0-3TK1VAdziAkRTUVm-26">
          <mxGeometry x="-0.9103" y="-2" relative="1" as="geometry">
            <mxPoint as="offset" />
          </mxGeometry>
        </mxCell>
        <mxCell id="Dh0-3TK1VAdziAkRTUVm-31" value="0..*" style="edgeLabel;html=1;align=center;verticalAlign=middle;resizable=0;points=[];" vertex="1" connectable="0" parent="Dh0-3TK1VAdziAkRTUVm-26">
          <mxGeometry x="0.9093" y="1" relative="1" as="geometry">
            <mxPoint as="offset" />
          </mxGeometry>
        </mxCell>
        <mxCell id="Dh0-3TK1VAdziAkRTUVm-27" style="edgeStyle=orthogonalEdgeStyle;rounded=0;orthogonalLoop=1;jettySize=auto;html=1;entryX=0.5;entryY=0;entryDx=0;entryDy=0;endArrow=none;endFill=0;" edge="1" parent="1" source="Dh0-3TK1VAdziAkRTUVm-5" target="Dh0-3TK1VAdziAkRTUVm-12">
          <mxGeometry relative="1" as="geometry" />
        </mxCell>
        <mxCell id="Dh0-3TK1VAdziAkRTUVm-28" value="1..1" style="edgeLabel;html=1;align=center;verticalAlign=middle;resizable=0;points=[];" vertex="1" connectable="0" parent="Dh0-3TK1VAdziAkRTUVm-27">
          <mxGeometry x="-0.9268" y="3" relative="1" as="geometry">
            <mxPoint as="offset" />
          </mxGeometry>
        </mxCell>
        <mxCell id="Dh0-3TK1VAdziAkRTUVm-30" value="1..*" style="edgeLabel;html=1;align=center;verticalAlign=middle;resizable=0;points=[];" vertex="1" connectable="0" parent="Dh0-3TK1VAdziAkRTUVm-27">
          <mxGeometry x="0.874" y="2" relative="1" as="geometry">
            <mxPoint y="1" as="offset" />
          </mxGeometry>
        </mxCell>
        <mxCell id="Dh0-3TK1VAdziAkRTUVm-32" style="edgeStyle=orthogonalEdgeStyle;rounded=0;orthogonalLoop=1;jettySize=auto;html=1;entryX=-0.008;entryY=0.915;entryDx=0;entryDy=0;entryPerimeter=0;endArrow=none;endFill=0;" edge="1" parent="1" source="Dh0-3TK1VAdziAkRTUVm-17" target="Dh0-3TK1VAdziAkRTUVm-21">
          <mxGeometry relative="1" as="geometry" />
        </mxCell>
        <mxCell id="Dh0-3TK1VAdziAkRTUVm-33" value="1..*" style="edgeLabel;html=1;align=center;verticalAlign=middle;resizable=0;points=[];" vertex="1" connectable="0" parent="Dh0-3TK1VAdziAkRTUVm-32">
          <mxGeometry x="-0.8008" y="1" relative="1" as="geometry">
            <mxPoint as="offset" />
          </mxGeometry>
        </mxCell>
        <mxCell id="Dh0-3TK1VAdziAkRTUVm-34" value="1..*" style="edgeLabel;html=1;align=center;verticalAlign=middle;resizable=0;points=[];" vertex="1" connectable="0" parent="Dh0-3TK1VAdziAkRTUVm-32">
          <mxGeometry x="0.8302" y="1" relative="1" as="geometry">
            <mxPoint as="offset" />
          </mxGeometry>
        </mxCell>
      </root>
    </mxGraphModel>
  </diagram>
</mxfile>
